/* XPM */
static char * bottom_left_active_xpm[] = {
"24 24 4 1",
"       c None",
"#      c #C0C0C0 s inactive_color_2",
"@      c #C0C0FF s inactive_hilight_2",
"S	    c #202020 s inactive_shadow_2",
"@@####                  ",
"@@####                  ",
"@@####                  ",
"@@####                  ",
"@@####                  ",
"@@####                  ",
"@@####                  ",
"@@####                  ",
"@@####                  ",
"@@####                  ",
"@@####                  ",
"@@####                  ",
"@@####                  ",
"@@####                  ",
"@@####                  ",
"@@####                  ",
"@@####                  ",
"@@####                  ",
"@@######################",
"@@######################",
"@@######################",
"@@######################",
"@SSSSSSSSSSSSSSSSSSSSSSS",
"SSSSSSSSSSSSSSSSSSSSSSSS"};
