/* XPM */
static char * bottom_right_active_xpm[] = {
"24 24 4 1",
"       c None",
"#      c #C0C0C0 s active_color_1",
"@      c #C0C0FF s active_shadow_1",
"S	c #202020 s active_shadow_1",
"                  ####@@",
"                  ####@@",
"                  ####@@",
"                  ####@@",
"                  ####@@",
"                  ####@@",
"                  ####@@",
"                  ####@@",
"                  ####@@",
"                  ####@@",
"                  ####@@",
"                  ####@@",
"                  ####@@",
"                  ####@@",
"                  ####@@",
"                  ####@@",
"                  ####@@",
"                  ####@@",
"######################@@",
"######################@@",
"######################@@",
"######################@@",
"SSSSSSSSSSSSSSSSSSSSSSS@",
"SSSSSSSSSSSSSSSSSSSSSSSS"};
