/* XPM */
static char * button_active_xpm[] = {
"25 30 4 1",
" 	c #808080 s active_color_1",
"@  c #FFFFFF s active_hilight_1",
"+  c #505050 s active_shadow_1",
"S  c #C0C0C0 s active_text_color",
"@@@@@@@@@@@@@@@@@@@@@@@@@",
"@@@@@@@@@@@@@@@@@@@@@@@@@",
"                         ",
"                         ",
" @@@@@@@@@@@@@@@@@@@@@@@ ",
" @@@@@@@@@@@@@@@@@@@@@@+ ",
" @@                   ++ ",
" @@                   ++ ",
" @@                   ++ ",
" @@                   ++ ",
" @@                   ++ ",
" @@                   ++ ",
" @@         S         ++ ",
" @@        SSS        ++ ",
" @@       SSSSS       ++ ",
" @@      SSS SSS      ++ ",
" @@     SSS   SSS     ++ ",
" @@    SSS     SSS    ++ ",
" @@   SSS       SSS   ++ ",
" @@                   ++ ",
" @@                   ++ ",
" @@                   ++ ",
" @@                   ++ ",
" @@                   ++ ",
" @@                   ++ ",
" @@                   ++ ",
" @@+++++++++++++++++++++ ",
" @++++++++++++++++++++++ ",
"                         ",
"                         "};
