/* XPM */
static char * top_right_active_xpm[] = {
"12 30 3 1",
"@      c #FFFFFF s active_hilight_1",
".      c #C0C0FF s active_color_1",
"+      c #606090 s active_shadow_1",
"@@@@@@@@@@@@",
"@@@@@@@@@@@+",
"..........++",
"..........++",
"..........++",
"..........++",
"..........++",
"..........++",
"..........++",
"..........++",
"..........++",
"..........++",
"..........++",
"..........++",
"..........++",
"..........++",
"..........++",
"..........++",
"..........++",
"..........++",
"..........++",
"..........++",
"..........++",
"..........++",
"..........++",
"..........++",
"..........++",
"..........++",
"..........++",
"..........++"};
