/* XPM */
static char * top_left_active_xpm[] = {
"12 30 3 1",
"       c None",
".      c #C0C0FF s inactive_color_2",
"@      c #C0C0FF s inactive_hilight_2",
"@@@@@@@@@@@@",
"@@@@@@@@@@@@",
"@@..........",
"@@..........",
"@@..........",
"@@..........",
"@@..........",
"@@..........",
"@@..........",
"@@..........",
"@@..........",
"@@..........",
"@@..........",
"@@..........",
"@@..........",
"@@..........",
"@@..........",
"@@..........",
"@@..........",
"@@..........",
"@@..........",
"@@..........",
"@@..........",
"@@..........",
"@@..........",
"@@..........",
"@@..........",
"@@..........",
"@@..........",
"@@.........."};
