/* XPM */
static char * top_left_active_xpm[] = {
"12 30 3 1",
"       c None",
".      c #C0C0FF s active_color_1",
"@      c #C0C0FF s active_hilight_1",
"@@@@@@@@@@@@",
"@@@@@@@@@@@@",
"@@..........",
"@@..........",
"@@..........",
"@@..........",
"@@..........",
"@@..........",
"@@..........",
"@@..........",
"@@..........",
"@@..........",
"@@..........",
"@@..........",
"@@..........",
"@@..........",
"@@..........",
"@@..........",
"@@..........",
"@@..........",
"@@..........",
"@@..........",
"@@..........",
"@@..........",
"@@..........",
"@@..........",
"@@..........",
"@@..........",
"@@..........",
"@@.........."};
